# xmcd CD database file
#
# Track frame offsets:
#	150
#	19623
#	39828
#	57978
#	78720
#	91563
#	117835
#	142005
#	162473
#	184313
#	199493
#	217705
#
# Disc length: 3955 seconds
#
# Revision: 7
# Processed by: cddbd v1.5.2PL0 Copyright (c) Steve Scherf et al.
# Submitted via: CDex 1.70beta3
#
DISCID=9f0f710c
DTITLE=KOЯN - Koяn
DYEAR=1994
DGENRE=Loud Rock
TTITLE0=Blind
TTITLE1=Ball Tounge
TTITLE2=Need To
TTITLE3=Clown
TTITLE4=Divine
TTITLE5=Faget
TTITLE6=Shoots And Ladders
TTITLE7=Predictable
TTITLE8=Fake
TTITLE9=Lies
TTITLE10=Helmet In The Bush
TTITLE11=Daddy
EXTD=\n YEAR: 1994
EXTT0=
EXTT1=
EXTT2=
EXTT3=
EXTT4=
EXTT5=
EXTT6=
EXTT7=
EXTT8=
EXTT9=
EXTT10=
EXTT11=
PLAYORDER=
